PathFileType	4	(X/Y/Z)	D:\TRACE\v60_Jaco2_6-2-23\JustBodyDRS_Motion3_6-v60.trc
DataRate	CameraRate	NumFrames	NumMarkers	Units	OrigDataRate	OrigDataStartFrame	OrigNumFrames
100.00	100.00	      34	9	mm	100.00	2626	      7000
Frame#	Time	front left toe			Front right toe			aft left toe			aft right toe			Arm			FL body			FR body			AL Body			AR Body			
		X1	Y1	Z1	X2	Y2	Z2	X3	Y3	Z3	X4	Y4	Z4	X5	Y5	Z5	X6	Y6	Z6	X7	Y7	Z7	X8	Y8	Z8	X9	Y9	Z9	

2626	26.250	-213.22661	163.34180	-153.46698	158.79489	37.63333	-169.02840	-175.40175	-32.22722	477.72885	204.94832	105.75148	438.63870	-26.82975	1196.19495	-156.87782	-122.60892	562.80194	-314.56137	35.03319	566.66180	-325.84802	-46.06266	489.83145	624.73962	105.70495	483.89816	612.26508	
2627	26.260	-216.11800	159.22824	-148.51306	158.70940	37.88758	-168.50529	-175.36401	-32.83620	477.35388	202.97151	101.68874	443.53415	-27.72707	1195.69299	-156.48117	-122.96398	562.12091	-313.79077	35.13534	565.97998	-325.18433	-47.30717	489.93289	625.47577	104.39903	484.07971	613.00287	
2628	26.270	-218.87288	154.01785	-143.85309	158.67635	38.05642	-168.23892	-175.76628	-32.56634	477.26822	200.55106	96.43717	448.10065	-28.67758	1195.40613	-156.15596	-123.35438	561.35175	-312.80417	34.81022	565.59125	-324.31955	-49.06588	489.89835	626.50140	103.10347	484.29108	614.10596	
2629	26.280	-221.23932	148.12218	-139.54999	158.37134	38.09809	-168.12343	-175.94438	-32.90144	477.37888	198.82805	90.74839	453.03033	-30.10921	1195.04626	-155.47499	-123.77660	560.73090	-312.12680	34.40105	564.93982	-323.31161	-49.99470	490.12857	627.40460	102.15016	484.58167	615.24445	
2630	26.290	-223.64970	141.15166	-135.54605	158.11430	38.21479	-167.93289	-176.24692	-33.28062	477.36462	196.24661	83.95555	457.55112	-31.40060	1194.67126	-154.94568	-124.39839	559.83148	-311.06625	33.31447	564.30908	-322.04449	-51.28837	490.27386	628.34302	100.52456	484.61258	616.23633	
2631	26.300	-225.87891	133.51570	-131.58289	157.99422	38.28737	-167.47618	-176.09840	-34.09131	477.43536	194.11769	76.29741	461.80508	-32.60335	1194.09851	-154.37038	-125.04687	559.59705	-310.49796	33.16401	564.00500	-321.35568	-52.46372	489.84152	629.45398	98.94031	484.52634	617.35956	
2632	26.310	-228.59108	125.16650	-127.88337	157.78502	38.38437	-167.21948	-176.34512	-34.43118	477.45062	188.96336	65.80913	465.50723	-33.68021	1193.42395	-153.55844	-125.59316	559.18262	-309.52710	32.13344	563.74237	-320.10959	-53.82196	489.65363	630.37421	97.94607	484.26709	618.36725	
2633	26.320	-231.56598	116.31935	-124.38255	157.60165	38.47188	-167.15666	-176.74651	-34.81939	477.99942	186.96085	56.29124	469.11578	-34.79875	1193.08521	-152.72179	-126.05321	558.90680	-308.80008	31.78301	563.52783	-318.97052	-55.38116	489.25717	631.36072	96.42564	483.94736	619.41205	
2634	26.330	-234.41869	106.51225	-120.98961	157.58327	38.60844	-166.95358	-176.63258	-34.98533	477.69104	184.49672	45.37206	472.97153	-35.50648	1192.95752	-151.23282	-126.61138	558.43134	-307.84085	31.08492	563.21045	-318.27637	-56.56180	488.88150	632.10150	95.15038	483.42282	620.45337	
2635	26.340	-236.89749	96.85896	-117.62357	157.42348	38.68179	-166.76134	-176.80518	-35.37346	477.78830	181.47351	34.69038	476.14398	-36.65612	1192.95605	-149.96353	-127.27013	558.31573	-307.30170	30.39197	562.95911	-317.33438	-57.91098	488.15308	632.96832	94.06998	482.90152	621.31903	
2636	26.350	-239.24188	87.17563	-115.01834	158.10385	39.29644	-165.98079	-177.53444	-35.25266	478.02716	178.90692	24.85469	478.11823	-37.39015	1192.74866	-148.77704	-127.92890	558.16309	-306.38062	30.24696	562.83856	-316.78073	-59.55101	487.60880	633.72186	92.52216	482.18784	622.09015	
2637	26.360	-240.91747	78.31551	-113.55737	158.30855	39.53501	-165.70262	-177.77081	-35.60535	478.07626	176.38388	14.50852	479.37723	-38.37123	1192.54431	-147.69127	-128.58661	558.32391	-305.80600	29.14823	562.84589	-315.72141	-60.28136	487.09003	634.66028	91.13354	481.31174	622.87628	
2638	26.370	-242.26512	70.23866	-113.47028	157.17216	39.18430	-166.04433	-178.02551	-35.97036	478.11523	174.47874	5.45621	479.14398	-38.47939	1192.37268	-146.33356	-129.35469	558.63434	-305.17413	28.73856	563.09320	-315.31622	-62.35287	485.98859	635.01160	89.74478	480.63986	623.53192	
2639	26.380	-243.40860	62.55905	-114.58526	156.94058	39.24916	-165.97617	-178.30554	-36.36071	478.21924	172.73058	-3.44353	477.84460	-38.77406	1192.45325	-145.22990	-130.08432	558.89520	-304.71350	27.75917	563.16974	-314.29349	-63.72835	485.87585	635.96313	87.80941	479.66064	624.25024	
2640	26.390	-244.53514	55.52151	-117.02115	156.66136	39.35385	-165.86255	-178.09904	-37.06939	478.09769	170.77895	-11.27873	475.25565	-38.94292	1192.49158	-143.95634	-130.79506	559.18359	-304.07596	26.87936	563.31219	-313.72586	-64.88143	484.53351	636.12201	86.39879	478.80408	624.83801	
2641	26.400	-245.40784	49.78082	-119.57235	156.35368	39.52686	-165.74034	-178.31195	-37.26081	478.22903	169.81207	-17.88100	472.46512	-38.82799	1192.53394	-142.53894	-131.52493	559.45020	-303.61777	26.76435	563.51697	-313.30194	-65.77994	483.97333	636.56714	85.08262	477.84738	625.25964	
2642	26.410	-246.50883	44.78676	-122.11729	156.10497	39.72922	-165.63799	-178.60451	-37.52848	478.34427	169.11168	-23.90035	470.17169	-38.68120	1192.54980	-141.14970	-132.26462	559.86176	-303.45779	25.44586	563.94055	-312.83774	-67.03534	482.93738	637.02325	83.93540	476.69232	625.36377	
2643	26.420	-247.51448	39.23011	-124.10481	155.81725	39.95206	-165.70494	-178.82626	-37.65916	478.30762	168.01947	-30.31851	467.88980	-38.59589	1192.65515	-139.78329	-132.99866	560.34076	-303.29739	24.79871	564.26849	-312.56628	-68.44278	481.93451	636.99365	82.42456	475.59042	625.68848	
2644	26.430	-248.49930	37.91176	-125.57358	155.49323	40.10030	-165.59187	-179.12869	-38.15569	478.77759	167.27736	-34.03111	465.23538	-38.95588	1193.06201	-138.52087	-133.45894	560.76453	-303.04367	25.10317	564.63867	-312.64328	-69.84188	480.09659	635.76398	81.57261	474.54544	625.66321	
2645	26.440	-249.16626	37.82965	-125.13938	155.41862	40.16267	-165.65210	-179.55205	-37.85800	478.89975	168.07648	-35.01422	466.96527	-39.21497	1193.56201	-137.57999	-133.69572	561.39380	-303.01517	24.69649	565.15588	-312.37552	-71.24709	480.45444	636.25983	81.65826	474.58963	625.83655	
2646	26.450	-248.82161	36.79991	-125.13457	155.25005	40.46824	-166.07788	-179.53239	-37.27805	478.20972	168.18053	-34.19674	465.56412	-39.12362	1194.38672	-137.07912	-134.10719	561.78082	-302.97156	24.36541	565.57709	-311.95432	-72.42864	481.56039	636.07623	80.93552	476.40604	626.55383	
2647	26.460	-248.73906	36.77296	-124.41913	155.74355	41.57957	-164.91444	-179.52399	-36.45250	478.11520	168.21439	-34.47145	466.87204	-39.12927	1195.17810	-137.55725	-134.15105	562.05933	-302.84210	24.09991	565.86682	-311.65201	-73.98312	483.36557	636.57526	78.04298	478.09796	626.95209	
2648	26.470	-248.54416	36.55415	-124.42384	153.53357	43.68076	-163.53664	-178.70572	-33.59722	477.92044	167.73605	-35.17910	467.71606	-39.57613	1195.97388	-138.77074	-134.05484	562.85364	-302.65552	24.25359	566.64252	-311.00473	-75.23862	484.34045	637.14056	76.41538	478.91068	627.43909	
2649	26.480	-248.57375	36.32035	-124.48419	150.75772	48.23720	-160.34344	-177.34224	-29.51366	479.89899	167.83920	-35.34542	467.12811	-40.28273	1196.31458	-140.47292	-134.15359	563.82697	-302.60690	23.76342	567.62451	-310.86282	-76.62362	485.17578	637.85895	75.44923	479.25882	627.65717	
2650	26.490	-248.64912	36.56624	-124.82677	145.33911	57.10543	-160.18718	-176.39783	-20.31928	479.12491	167.72020	-35.46247	467.13428	-41.77273	1196.52551	-141.11862	-134.14386	564.59821	-302.69955	23.73013	568.34760	-310.72195	-77.25753	485.21600	637.97870	74.05476	479.32553	627.83453	
2651	26.500	-248.77902	36.05278	-124.78136	144.28372	68.36981	-159.68439	-176.70888	-9.93104	478.31830	167.54573	-35.20179	467.04779	-42.80789	1196.87317	-140.49338	-134.76100	564.85370	-302.51303	23.22266	568.65698	-310.72269	-78.71030	484.26096	636.45837	72.80893	479.32742	627.87219	
2652	26.510	-249.04892	35.71799	-124.73843	142.56908	80.05346	-161.58752	-175.84979	3.20669	476.58170	167.46358	-35.14405	467.16812	-44.14596	1197.32031	-139.32619	-134.90292	564.76184	-302.73456	22.94757	568.56445	-310.72696	-79.24453	484.27402	636.51984	72.32648	479.22464	627.81726	
2653	26.520	-249.08273	35.61766	-124.71428	144.06154	93.57674	-162.59265	-179.10333	16.42314	475.85007	167.46187	-35.31137	467.07800	-44.43332	1197.51440	-137.94641	-135.67581	564.57104	-302.73935	22.24579	568.60150	-310.73654	-79.64484	483.80774	636.85876	71.32669	478.49606	627.51953	
2654	26.530	-249.29034	35.33656	-124.85869	145.36389	107.03529	-162.68616	-183.54585	29.77529	475.17328	167.44061	-35.70887	466.85825	-44.36037	1197.32349	-136.84076	-136.84276	564.60425	-302.80530	21.47421	568.92822	-311.12796	-80.29915	482.79468	636.52130	70.87259	477.81390	627.51447	
2655	26.540	-249.44966	35.16237	-124.85789	145.90820	120.43828	-162.95250	-186.82637	41.82639	475.12708	167.39552	-35.82496	466.82932	-44.28500	1196.74536	-136.16956	-137.64728	564.76373	-302.68625	20.49328	569.07550	-311.12738	-80.48423	481.77640	636.69781	70.87959	476.55878	627.39636	
2656	26.550	-249.64474	34.98162	-124.88745	144.68353	133.22072	-162.76862	-189.94235	53.83193	475.06546	167.35519	-35.53561	466.76718	-44.85464	1196.24402	-135.81496	-138.50790	564.95721	-302.46597	19.37444	569.04938	-310.77194	-80.56567	480.85983	636.57373	71.20644	475.81689	627.42908	
2657	26.560	-249.76848	34.89199	-124.82153	143.09694	145.13449	-162.21597	-191.62926	64.89962	475.29630	167.47450	-35.61957	466.91321	-45.87960	1196.18372	-135.16583	-139.21736	565.01190	-302.14276	18.79228	569.05371	-310.52982	-80.82104	480.07678	636.97772	70.95742	474.96555	627.41510	
2658	26.570	-249.86041	34.69011	-124.78532	139.88751	155.69823	-162.09277	-193.14537	74.99889	476.04651	167.51320	-35.93394	466.66943	-47.63093	1196.45520	-134.60481	-140.39992	565.20496	-302.19434	18.35513	569.12524	-310.41025	-80.96795	479.45993	637.11847	70.78710	474.42859	627.56659	
2659	26.580	-249.94069	34.48376	-124.72997	138.13506	164.90211	-160.88788	-194.73576	83.93049	476.73721	167.47047	-36.02236	466.64655	-49.21399	1196.47485	-134.05507	-140.76736	564.60925	-301.51315	17.10546	568.96521	-309.99979	-81.20821	478.82922	637.05817	70.73651	474.21545	627.76208	
